<svg width="26" height="26" viewBox="0 0 26 26" fill="none" xmlns="http://www.w3.org/2000/svg">
<path d="M13 23.5625V8.9375" stroke="#DEB1E3" stroke-width="3" stroke-linecap="round" stroke-linejoin="round"/>
<path d="M13.456 18.4031C14.2014 18.9108 15.0443 19.2579 15.9312 19.4221C16.818 19.5864 17.7293 19.5643 18.6072 19.3573C19.485 19.1502 20.3101 18.7628 21.0301 18.2195C21.7501 17.6763 22.3491 16.9891 22.7891 16.2018C23.2291 15.4145 23.5004 14.5442 23.5858 13.6463C23.6712 12.7485 23.5688 11.8427 23.2852 10.9865C23.0015 10.1303 22.5428 9.3426 21.9381 8.67336C21.3335 8.00412 20.5962 7.46804 19.7731 7.0992C19.5924 7.00835 19.4488 6.85758 19.3669 6.67264C18.8404 5.41831 17.9551 4.34741 16.8222 3.59431C15.6893 2.84121 14.3593 2.43945 12.9989 2.43945C11.6386 2.43945 10.3085 2.84121 9.17561 3.59431C8.04272 4.34741 7.15748 5.41831 6.63095 6.67264C6.54901 6.85758 6.40543 7.00835 6.2247 7.0992C5.40164 7.46804 4.66435 8.00412 4.05971 8.67336C3.45508 9.3426 2.99634 10.1303 2.71267 10.9865C2.429 11.8427 2.32662 12.7485 2.41202 13.6463C2.49742 14.5442 2.76875 15.4145 3.20874 16.2018C3.64874 16.9891 4.24777 17.6763 4.96773 18.2195C5.68769 18.7628 6.51283 19.1502 7.39067 19.3573C8.26851 19.5643 9.17983 19.5864 10.0667 19.4221C10.9535 19.2579 11.7964 18.9108 12.5419 18.4031C12.6777 18.314 12.8365 18.2665 12.9989 18.2665C13.1613 18.2665 13.3202 18.314 13.456 18.4031Z" stroke="#DEB1E3" stroke-width="3" stroke-linecap="round" stroke-linejoin="round"/>
<path d="M13 15.4375L8.125 13" stroke="#DEB1E3" stroke-width="3" stroke-linecap="round" stroke-linejoin="round"/>
<path d="M13 13L17.875 10.5625" stroke="#DEB1E3" stroke-width="3" stroke-linecap="round" stroke-linejoin="round"/>
</svg>
