<svg width="32" height="32" viewBox="0 0 32 32" fill="none" xmlns="http://www.w3.org/2000/svg">
<circle cx="16" cy="16" r="16" fill="#23CE6B"/>
<path d="M15.9974 24.6807C16.1291 24.6807 16.3348 24.6313 16.5406 24.5243C21.2232 22.0719 22.7292 20.8457 22.7292 17.8913V11.6862C22.7292 10.8386 22.3671 10.567 21.6758 10.279C20.713 9.88393 17.6351 8.76471 16.6805 8.43553C16.4583 8.36146 16.2278 8.32031 15.9974 8.32031C15.767 8.32031 15.5366 8.36969 15.3226 8.43553C14.3597 8.74825 11.2819 9.89216 10.319 10.279C9.63596 10.5588 9.26562 10.8386 9.26562 11.6862V17.8913C9.26562 20.8457 10.8539 21.932 15.4543 24.5243C15.6682 24.6396 15.8657 24.6807 15.9974 24.6807Z" fill="#F9F9F9"/>
</svg>
