<svg width="32" height="32" viewBox="0 0 32 32" fill="none" xmlns="http://www.w3.org/2000/svg">
<circle cx="16" cy="16" r="16" fill="#883FFF"/>
<path d="M12.4523 23.5962H20.1845C21.6916 23.5962 22.4415 22.8318 22.4415 21.3174V14.7065H17.1703C16.2383 14.7065 15.7942 14.2623 15.7942 13.3304V7.98633H12.4523C10.9525 7.98633 10.1953 8.75809 10.1953 10.2725V21.3174C10.1953 22.839 10.9452 23.5962 12.4523 23.5962ZM17.1921 13.709H22.3542C22.3105 13.4105 22.0993 13.1193 21.7499 12.7625L17.7382 8.678C17.396 8.32852 17.0975 8.11738 16.7917 8.06642V13.3158C16.7917 13.5779 16.9227 13.709 17.1921 13.709Z" fill="#F9F9F9"/>
</svg>
