<svg width="32" height="32" viewBox="0 0 32 32" fill="none" xmlns="http://www.w3.org/2000/svg">
<circle cx="16" cy="16" r="16" fill="#FF6700"/>
<path fill-rule="evenodd" clip-rule="evenodd" d="M10.4246 23.1575C10.4741 23.3837 10.6202 23.5657 10.8083 23.6776L10.8117 23.6795C11.1777 23.8873 11.7239 23.8611 12.0455 23.3988L21.4058 9.5616C21.5747 9.31951 21.6156 9.06157 21.5573 8.83119C21.5001 8.60491 21.3507 8.41817 21.1621 8.30608L21.1555 8.30247C20.9782 8.20625 20.7629 8.16693 20.5456 8.21735C20.3264 8.26824 20.1204 8.40695 19.957 8.64028L10.5968 22.4377C10.4278 22.6777 10.3745 22.9289 10.4246 23.1575Z" fill="#F9F9F9"/>
<path fill-rule="evenodd" clip-rule="evenodd" d="M11.4806 16.0099C12.3965 16.0099 13.1415 15.6298 13.6518 14.9465C14.1573 14.2696 14.422 13.3103 14.422 12.1604C14.422 11.0102 14.1552 10.0565 13.6481 9.38538C13.1364 8.70812 12.3915 8.33482 11.4806 8.33482C10.5657 8.33482 9.81882 8.71016 9.30617 9.38833C8.79814 10.0604 8.53125 11.0141 8.53125 12.1604C8.53125 13.3142 8.79589 14.2737 9.30271 14.9498C9.81435 15.6323 10.5615 16.0099 11.4806 16.0099ZM11.4806 14.5082C11.097 14.5082 10.7877 14.3206 10.5643 13.937C10.3354 13.5441 10.2003 12.9474 10.2003 12.1604C10.2003 11.3863 10.3371 10.7934 10.567 10.4012C10.792 10.0174 11.1019 9.82858 11.4806 9.82858C11.8597 9.82858 12.1673 10.0157 12.39 10.3978C12.618 10.7889 12.753 11.3817 12.753 12.1604C12.753 12.9478 12.6198 13.5447 12.3926 13.9376C12.1711 14.3209 11.8639 14.5082 11.4806 14.5082Z" fill="#F9F9F9"/>
<path fill-rule="evenodd" clip-rule="evenodd" d="M20.5296 23.6729C21.4454 23.6729 22.1904 23.2928 22.7007 22.6106C23.2062 21.9347 23.471 20.9774 23.471 19.8313C23.471 18.6773 23.2042 17.7216 22.6972 17.0494C22.1855 16.3711 21.4405 15.9978 20.5296 15.9978C19.6147 15.9978 18.8677 16.3731 18.355 17.0524C17.847 17.7255 17.5802 18.6811 17.5802 19.8313C17.5802 20.9812 17.8449 21.9388 18.3518 22.6139C18.8634 23.2953 19.6105 23.6729 20.5296 23.6729ZM20.5296 22.1791C20.1466 22.1791 19.8371 21.9901 19.6134 21.6051C19.3843 21.211 19.2492 20.6142 19.2492 19.8313C19.2492 19.053 19.3861 18.4603 19.6159 18.0693C19.8405 17.6869 20.1502 17.4995 20.5296 17.4995C20.9093 17.4995 21.2167 17.6852 21.4391 18.0659C21.6669 18.4558 21.802 19.0485 21.802 19.8313C21.802 20.6146 21.6688 21.2116 21.4415 21.6057C21.2197 21.9904 20.9123 22.1791 20.5296 22.1791Z" fill="#F9F9F9"/>
</svg>
