<svg width="12" height="12" viewBox="0 0 12 12" fill="none" xmlns="http://www.w3.org/2000/svg">
<path d="M0.859375 6.14974C0.859375 7.88441 1.3555 9.15031 2.34775 9.94744C3.34 10.7446 4.70655 11.1431 6.44741 11.1431C7.5947 11.1431 8.55816 10.9869 9.33778 10.6744C10.1174 10.3573 10.7198 10.0131 11.1451 9.64172V5.5383H6.30124V7.44055H8.54044V8.75854C8.25251 8.92159 7.94465 9.03481 7.61685 9.09822C7.29348 9.1571 6.9081 9.18654 6.4607 9.18654C5.58363 9.18654 4.88374 9.00084 4.36104 8.62945C3.84276 8.25353 3.58363 7.54246 3.58363 6.49622V5.49754C3.58363 4.49207 3.8184 3.79911 4.28795 3.41866C4.76192 3.03368 5.35771 2.84119 6.07532 2.84119C6.83723 2.84119 7.41751 2.95442 7.81619 3.18088C8.21929 3.40281 8.43413 3.72211 8.4607 4.1388L8.46735 4.22032H11.1252V4.11162C11.1252 2.99292 10.68 2.17088 9.78961 1.6455C8.90367 1.12011 7.6988 0.857422 6.17499 0.857422C4.61131 0.857422 3.33335 1.25599 2.3411 2.05312C1.35328 2.85025 0.859375 4.11389 0.859375 5.84402V6.14974Z" fill="#090909"/>
</svg>
